<svg width="72" height="63" viewBox="0 0 72 63" fill="none" xmlns="http://www.w3.org/2000/svg">
<path d="M8.19318 7.08112H4.04226V47.9231H8.19318V51.636H0V3.36821H8.19318V7.08112Z" fill="#45A29E"/>
<path d="M63.7851 3.36821H72V51.636H63.7851V47.9231H67.9795V7.08112H63.7851V3.36821Z" fill="#45A29E"/>
<path d="M22.2107 2.73583C22.2107 1.95416 22.4135 1.30277 22.8192 0.781665C23.2394 0.260555 23.8624 0 24.6882 0C25.514 0 26.137 0.260555 26.5572 0.781665C26.9919 1.30277 27.2092 1.95416 27.2092 2.73583C27.2092 3.48492 26.9919 4.11188 26.5572 4.61671C26.137 5.12153 25.514 5.37394 24.6882 5.37394C23.8624 5.37394 23.2394 5.12153 22.8192 4.61671C22.4135 4.11188 22.2107 3.48492 22.2107 2.73583Z" fill="#45A29E"/>
<path d="M44.9864 2.73583C44.9864 1.95416 45.1893 1.30277 45.5949 0.781665C46.0151 0.260555 46.6381 0 47.4639 0C48.2898 0 48.9128 0.260555 49.3329 0.781665C49.7676 1.30277 49.9849 1.95416 49.9849 2.73583C49.9849 3.48492 49.7676 4.11188 49.3329 4.61671C48.9128 5.12153 48.2898 5.37394 47.4639 5.37394C46.6381 5.37394 46.0151 5.12153 45.5949 4.61671C45.1893 4.11188 44.9864 3.48492 44.9864 2.73583Z" fill="#45A29E"/>
<path d="M53.6674 25.358L39.3021 19.0314V14.3902L57.8618 23.6236V27.19L39.3021 36.4478V31.7578L53.6674 25.358Z" fill="#45A29E"/>
<path d="M35.9094 63C32.6351 63 29.4911 62.5115 26.4775 61.5344C23.4639 60.541 20.7256 59.0672 18.2626 57.1131C15.7996 55.1589 14.061 53.1315 13.0468 51.0308L15.6982 50.1025C17.3209 52.4801 19.7984 54.4343 23.1307 55.965C26.463 57.4795 30.1938 58.31 34.323 58.4566L36.1702 58.481C41.7628 58.481 46.6164 57.3329 50.7311 55.0368C53.1941 53.6526 55.121 52.0078 56.5119 50.1025L58.9677 51.0308C57.8956 53.1966 56.099 55.2648 53.578 57.2352C48.652 61.0784 42.7625 63 35.9094 63Z" fill="#45A29E"/>
</svg>
